<?xml version="1.0" encoding="UTF-8"?>
<!--
  Rust Troll — arms-front rig part. Tree-trunk arms with chain
  bicep wraps, scrap vambraces with rust rivets, massive fists with
  welded knuckle spikes. Rides inside the weapon wrap.
-->
<svg xmlns="http://www.w3.org/2000/svg" viewBox="0 0 96 128" width="96" height="128">
  <defs>
    <linearGradient id="t-skin" x1="0" x2="0" y1="0" y2="1">
      <stop offset="0" stop-color="#7a6a50"/><stop offset="1" stop-color="#2a2418"/>
    </linearGradient>
    <linearGradient id="t-skin-dark" x1="0" x2="0" y1="0" y2="1">
      <stop offset="0" stop-color="#5a4a38"/><stop offset="1" stop-color="#1a1408"/>
    </linearGradient>
    <linearGradient id="t-rust" x1="0" x2="0" y1="0" y2="1">
      <stop offset="0" stop-color="#8a5028"/><stop offset="1" stop-color="#2a1408"/>
    </linearGradient>
  </defs>
  <path d="M2 40 Q-2 48 2 60 L10 78 Q18 82 22 74 L24 46 Z" fill="url(#t-skin)"/>
  <path d="M94 40 Q98 48 94 60 L86 78 Q78 82 74 74 L72 46 Z" fill="url(#t-skin)"/>
  <path d="M4 52 L22 54" stroke="#2a2010" stroke-width="1.5"/>
  <path d="M92 52 L74 54" stroke="#2a2010" stroke-width="1.5"/>
  <path d="M10 62 L20 66" stroke="#1a1408" stroke-width="0.6"/>
  <path d="M86 62 L76 66" stroke="#1a1408" stroke-width="0.6"/>
  <path d="M4 64 L22 64 L22 76 L8 78 Z" fill="url(#t-rust)"/>
  <path d="M92 64 L74 64 L74 76 L88 78 Z" fill="url(#t-rust)"/>
  <circle cx="8" cy="66" r="0.8" fill="#c87030"/>
  <circle cx="18" cy="66" r="0.8" fill="#c87030"/>
  <circle cx="8" cy="74" r="0.8" fill="#c87030"/>
  <circle cx="18" cy="74" r="0.8" fill="#c87030"/>
  <circle cx="88" cy="66" r="0.8" fill="#c87030"/>
  <circle cx="78" cy="66" r="0.8" fill="#c87030"/>
  <circle cx="88" cy="74" r="0.8" fill="#c87030"/>
  <circle cx="78" cy="74" r="0.8" fill="#c87030"/>
  <path d="M0 76 Q-4 84 6 86 L22 82 Q24 78 22 76 Z" fill="url(#t-skin-dark)"/>
  <path d="M96 76 Q100 84 90 86 L74 82 Q72 78 74 76 Z" fill="url(#t-skin-dark)"/>
  <path d="M2 84 L0 88 L4 86 Z" fill="#c87030"/>
  <path d="M8 86 L6 90 L10 88 Z" fill="#c87030"/>
  <path d="M94 84 L96 88 L92 86 Z" fill="#c87030"/>
  <path d="M88 86 L90 90 L86 88 Z" fill="#c87030"/>
</svg>
