<?xml version="1.0" encoding="UTF-8"?>
<!--
  Rust Troll — head rig part. Full-face scrap bucket helm with narrow
  eye slit (red glowing eyes through), ventilation grid, welded center
  panel, huge rust-iron bull horns, and small dangling choir bells off
  each horn tip.
-->
<svg xmlns="http://www.w3.org/2000/svg" viewBox="0 0 96 128" width="96" height="128">
  <defs>
    <linearGradient id="t-rust" x1="0" x2="0" y1="0" y2="1">
      <stop offset="0" stop-color="#8a5028"/><stop offset="1" stop-color="#2a1408"/>
    </linearGradient>
    <linearGradient id="t-rust-hl" x1="0" x2="0" y1="0" y2="1">
      <stop offset="0" stop-color="#c87030"/><stop offset="1" stop-color="#4a2410"/>
    </linearGradient>
    <linearGradient id="t-metal" x1="0" x2="0" y1="0" y2="1">
      <stop offset="0" stop-color="#6a6a6e"/><stop offset="1" stop-color="#1a1a1c"/>
    </linearGradient>
    <radialGradient id="t-eye" cx=".5" cy=".5" r=".5">
      <stop offset="0" stop-color="#ff5a3c"/>
      <stop offset=".5" stop-color="#c82810"/>
      <stop offset="1" stop-color="#3a0808" stop-opacity="0"/>
    </radialGradient>
  </defs>
  <path d="M30 6 Q34 -2 48 -4 Q62 -2 66 6 L66 22 L30 22 Z" fill="url(#t-metal)"/>
  <path d="M30 22 L66 22" stroke="#0a0a0c" stroke-width="1.2"/>
  <circle cx="34" cy="20" r="0.9" fill="#c87030"/>
  <circle cx="42" cy="20" r="0.9" fill="#c87030"/>
  <circle cx="48" cy="20" r="0.9" fill="#c87030"/>
  <circle cx="54" cy="20" r="0.9" fill="#c87030"/>
  <circle cx="62" cy="20" r="0.9" fill="#c87030"/>
  <path d="M38 2 L58 2 L58 18 L38 18 Z" fill="url(#t-rust)"/>
  <path d="M38 2 L58 2" stroke="#0a0a0c" stroke-width="0.6"/>
  <path d="M38 10 L58 10 L58 14 L38 14 Z" fill="#000"/>
  <circle cx="42" cy="12" r="1.6" fill="url(#t-eye)"/>
  <circle cx="54" cy="12" r="1.6" fill="url(#t-eye)"/>
  <circle cx="42" cy="12" r="0.7" fill="#fff4c0"/>
  <circle cx="54" cy="12" r="0.7" fill="#fff4c0"/>
  <path d="M40 16 L56 16" stroke="#0a0a0c" stroke-width="0.6"/>
  <circle cx="42" cy="17" r="0.5" fill="#0a0a0c"/>
  <circle cx="46" cy="17" r="0.5" fill="#0a0a0c"/>
  <circle cx="50" cy="17" r="0.5" fill="#0a0a0c"/>
  <circle cx="54" cy="17" r="0.5" fill="#0a0a0c"/>
  <path d="M32 6 Q22 2 16 -6 L22 -2 Q28 2 34 8 Z" fill="url(#t-rust)"/>
  <path d="M64 6 Q74 2 80 -6 L74 -2 Q68 2 62 8 Z" fill="url(#t-rust)"/>
  <circle cx="30" cy="6" r="1.4" fill="none" stroke="#c87030" stroke-width="0.6"/>
  <circle cx="66" cy="6" r="1.4" fill="none" stroke="#c87030" stroke-width="0.6"/>
  <path d="M18 -2 L20 -8 L22 -2 Z" fill="url(#t-rust-hl)"/>
  <path d="M20 -2 L20 2" stroke="#2a1408" stroke-width="0.4"/>
  <path d="M78 -2 L76 -8 L74 -2 Z" fill="url(#t-rust-hl)"/>
  <path d="M76 -2 L76 2" stroke="#2a1408" stroke-width="0.4"/>
  <path d="M34 8 L32 14" stroke="url(#t-rust-hl)" stroke-width="0.5" opacity=".8"/>
  <path d="M62 8 L64 14" stroke="url(#t-rust-hl)" stroke-width="0.5" opacity=".8"/>
</svg>
