<svg xmlns="http://www.w3.org/2000/svg" viewBox="0 0 96 128">
  <defs>
    <linearGradient id="s-bone" x1="0" x2="0" y1="0" y2="1">
      <stop offset="0" stop-color="#f0ead8"/><stop offset="1" stop-color="#8a7e66"/>
    </linearGradient>
    <linearGradient id="s-bone-dark" x1="0" x2="0" y1="0" y2="1">
      <stop offset="0" stop-color="#b8ad95"/><stop offset="1" stop-color="#4a3e28"/>
    </linearGradient>
    <linearGradient id="s-fur" x1="0" x2="0" y1="0" y2="1">
      <stop offset="0" stop-color="#d4c8b0"/><stop offset="1" stop-color="#3a3020"/>
    </linearGradient>
    <linearGradient id="s-scarf" x1="0" x2="0" y1="0" y2="1">
      <stop offset="0" stop-color="#e8dfc4"/><stop offset="1" stop-color="#7a6e52"/>
    </linearGradient>
    <linearGradient id="s-under" x1="0" x2="0" y1="0" y2="1">
      <stop offset="0" stop-color="#2a251e"/><stop offset="1" stop-color="#0a0806"/>
    </linearGradient>
    <linearGradient id="s-brass" x1="0" x2="0" y1="0" y2="1">
      <stop offset="0" stop-color="#c8a868"/><stop offset="1" stop-color="#6a4a1a"/>
    </linearGradient>
    <linearGradient id="s-gun" x1="0" x2="0" y1="0" y2="1">
      <stop offset="0" stop-color="#2a2218"/><stop offset="1" stop-color="#0a0806"/>
    </linearGradient>
    <radialGradient id="s-alch" cx=".5" cy=".5" r=".5">
      <stop offset="0" stop-color="#e8f8d8"/>
      <stop offset=".4" stop-color="#9cd6a6"/>
      <stop offset="1" stop-color="#2a5a3a" stop-opacity="0"/>
    </radialGradient>
    <radialGradient id="s-ember" cx=".5" cy=".5" r=".5">
      <stop offset="0" stop-color="#fff4c0"/>
      <stop offset=".5" stop-color="#ff9a3c"/>
      <stop offset="1" stop-color="#8a3010" stop-opacity="0"/>
    </radialGradient>
  </defs>
  <rect width="96" height="128" fill="#1b2331"/>
  <ellipse cx="48" cy="120" rx="26" ry="5" fill="#000" opacity=".55"/>

  <!-- BACK CLOAK / short utility mantle -->
  <path d="M12 36 Q10 46 12 82 Q14 100 22 100 L30 96 L34 40 Z" fill="url(#s-fur)"/>
  <path d="M84 36 Q86 46 84 82 Q82 100 74 100 L66 96 L62 40 Z" fill="url(#s-fur)"/>
  <path d="M34 38 L62 38 L62 96 L34 96 Z" fill="url(#s-bone-dark)" opacity=".4"/>
  <!-- torn hem -->
  <path d="M14 94 L18 102 L22 96 L26 102 L30 96 L34 100 L34 104 L14 104 Z" fill="#1b2331"/>
  <path d="M62 96 L66 102 L70 96 L74 102 L78 96 L82 102 L84 96 L84 104 L62 104 Z" fill="#1b2331"/>
  <path d="M16 40 Q16 70 16 96" fill="none" stroke="#2a2414" stroke-width="0.8"/>
  <path d="M80 40 Q80 70 80 96" fill="none" stroke="#2a2414" stroke-width="0.8"/>

  <!-- LEGS: dark undersuit + bone greaves -->
  <path d="M34 78 Q32 108 40 114 L46 114 L48 78 Z" fill="url(#s-under)"/>
  <path d="M62 78 Q64 108 56 114 L50 114 L48 78 Z" fill="url(#s-under)"/>
  <!-- thigh plate with utility pocket strap -->
  <path d="M33 78 L48 78 L48 94 L36 94 Z" fill="url(#s-bone)"/>
  <path d="M63 78 L48 78 L48 94 L60 94 Z" fill="url(#s-bone)"/>
  <!-- utility pocket on thigh (dark, strapped over bone) -->
  <path d="M36 84 L44 84 L44 92 L36 92 Z" fill="#1a1410"/>
  <path d="M52 84 L60 84 L60 92 L52 92 Z" fill="#1a1410"/>
  <circle cx="40" cy="88" r="0.8" fill="#c8a868"/>
  <circle cx="56" cy="88" r="0.8" fill="#c8a868"/>
  <!-- filigree visible around pocket -->
  <path d="M34 82 L36 82 M46 82 L44 82" stroke="#6a5a40" stroke-width="0.4"/>
  <path d="M62 82 L60 82 M50 82 L52 82" stroke="#6a5a40" stroke-width="0.4"/>
  <!-- knee plates -->
  <path d="M34 94 Q40 92 46 94 L46 102 Q40 104 34 102 Z" fill="url(#s-bone-dark)"/>
  <path d="M62 94 Q56 92 50 94 L50 102 Q56 104 62 102 Z" fill="url(#s-bone-dark)"/>
  <path d="M36 97 L44 97 M36 100 L44 100" stroke="#5a4a30" stroke-width="0.3"/>
  <path d="M52 97 L60 97 M52 100 L60 100" stroke="#5a4a30" stroke-width="0.3"/>
  <!-- shin greaves -->
  <path d="M34 102 L46 102 L45 112 L35 112 Z" fill="url(#s-bone)"/>
  <path d="M62 102 L50 102 L51 112 L61 112 Z" fill="url(#s-bone)"/>
  <path d="M38 106 L42 106" stroke="#6a5a40" stroke-width="0.3"/>
  <path d="M54 106 L58 106" stroke="#6a5a40" stroke-width="0.3"/>
  <!-- grime -->
  <path d="M36 108 L42 111" stroke="#5a4a30" stroke-width="0.4" opacity=".7"/>
  <path d="M54 108 L60 111" stroke="#5a4a30" stroke-width="0.4" opacity=".7"/>
  <!-- heavy tactical boots -->
  <path d="M32 112 L48 112 L48 118 L36 120 Q32 117 32 112 Z" fill="#0a0806"/>
  <path d="M64 112 L48 112 L48 118 L60 120 Q64 117 64 112 Z" fill="#0a0806"/>
  <!-- steel toe caps (brass) -->
  <path d="M32 118 L38 116 L36 120 Z" fill="url(#s-brass)"/>
  <path d="M64 118 L58 116 L60 120 Z" fill="url(#s-brass)"/>

  <!-- BELT with tool pouches + GRENADE LOOPS -->
  <path d="M22 74 L74 74 L74 82 L22 82 Z" fill="#1a1410"/>
  <rect x="44" y="73" width="10" height="10" fill="url(#s-bone-dark)"/>
  <path d="M46 75 L52 75 L52 81 L46 81 Z" fill="#1a1410"/>
  <circle cx="49" cy="78" r="1.2" fill="#9cd6a6"/>
  <!-- tool pouches (dark, over bone) -->
  <path d="M24 82 L32 82 L32 94 L24 94 Z" fill="#1a1410"/>
  <path d="M64 82 L72 82 L72 94 L64 94 Z" fill="#1a1410"/>
  <path d="M25 86 L31 86 M25 90 L31 90" stroke="#3a3228" stroke-width="0.4"/>
  <path d="M65 86 L71 86 M65 90 L71 90" stroke="#3a3228" stroke-width="0.4"/>
  <!-- EMBERCORE ORBS (draconic orange grenades hanging from belt) -->
  <g>
    <path d="M34 80 L34 86" stroke="#3a3228" stroke-width="0.8"/>
    <circle cx="34" cy="88" r="3" fill="#1a1410"/>
    <circle cx="34" cy="88" r="2.2" fill="url(#s-ember)"/>
    <circle cx="34" cy="88" r="1" fill="#fff4c0"/>
  </g>
  <g>
    <path d="M42 80 L42 88" stroke="#3a3228" stroke-width="0.8"/>
    <circle cx="42" cy="90" r="3" fill="#1a1410"/>
    <circle cx="42" cy="90" r="2.2" fill="url(#s-ember)"/>
    <circle cx="42" cy="90" r="1" fill="#fff4c0"/>
  </g>
  <g>
    <path d="M56 80 L56 88" stroke="#3a3228" stroke-width="0.8"/>
    <circle cx="56" cy="90" r="3" fill="#1a1410"/>
    <circle cx="56" cy="90" r="2.2" fill="url(#s-ember)"/>
    <circle cx="56" cy="90" r="1" fill="#fff4c0"/>
  </g>
  <g>
    <path d="M62 80 L62 86" stroke="#3a3228" stroke-width="0.8"/>
    <circle cx="62" cy="88" r="3" fill="#1a1410"/>
    <circle cx="62" cy="88" r="2.2" fill="url(#s-ember)"/>
    <circle cx="62" cy="88" r="1" fill="#fff4c0"/>
  </g>

  <!-- TORSO: bone plate -->
  <path d="M22 38 Q22 34 26 34 L70 34 Q74 34 74 38 L74 74 Q74 78 70 78 L26 78 Q22 78 22 74 Z" fill="url(#s-under)"/>
  <!-- upper plate -->
  <path d="M26 40 L70 40 Q72 40 72 42 L72 56 L48 62 L24 56 L24 42 Q24 40 26 40 Z" fill="url(#s-bone)"/>
  <!-- lower plate -->
  <path d="M26 56 L70 56 L70 68 L48 74 L26 68 Z" fill="url(#s-bone)"/>
  <path d="M24 56 L72 56" stroke="#6a5a40" stroke-width="0.6"/>
  <!-- alchemical sigil in center chest (crown-style, smaller) -->
  <path d="M42 46 L46 42 L48 44 L50 42 L54 46 L52 52 L44 52 Z" fill="none" stroke="#5a4a30" stroke-width="0.6"/>
  <path d="M46 44 L46 50 M48 42 L48 50 M50 44 L50 50" stroke="#5a4a30" stroke-width="0.4"/>
  <circle cx="48" cy="48" r="1.3" fill="#9cd6a6"/>
  <circle cx="48" cy="48" r="0.6" fill="#e8f8d8"/>
  <!-- filigree on lower plate -->
  <path d="M32 60 Q48 64 64 60" fill="none" stroke="#5a4a30" stroke-width="0.4"/>
  <path d="M34 66 Q48 70 62 66" fill="none" stroke="#5a4a30" stroke-width="0.4"/>
  <!-- rivets -->
  <circle cx="28" cy="44" r="0.8" fill="#6a5a40"/>
  <circle cx="68" cy="44" r="0.8" fill="#6a5a40"/>
  <circle cx="28" cy="54" r="0.8" fill="#6a5a40"/>
  <circle cx="68" cy="54" r="0.8" fill="#6a5a40"/>
  <circle cx="30" cy="66" r="0.8" fill="#6a5a40"/>
  <circle cx="66" cy="66" r="0.8" fill="#6a5a40"/>
  <!-- heavy weathering (Sapper is the grimy one) -->
  <path d="M28 48 L34 52" stroke="#5a4a30" stroke-width="0.4" opacity=".7"/>
  <path d="M60 48 L66 52" stroke="#5a4a30" stroke-width="0.4" opacity=".7"/>
  <path d="M34 58 L40 62" stroke="#4a3e28" stroke-width="0.4" opacity=".7"/>
  <path d="M56 58 L62 62" stroke="#4a3e28" stroke-width="0.4" opacity=".7"/>
  <path d="M36 70 L42 72" stroke="#3a3020" stroke-width="0.4" opacity=".6"/>

  <!-- ALCHEMICAL VIAL BANDOLIER across chest (narrow) -->
  <path d="M26 40 L72 56" stroke="#3a3228" stroke-width="3.5"/>
  <g>
    <rect x="30" y="42" width="3" height="5" rx="0.4" fill="#0a0806"/>
    <rect x="30.5" y="43" width="2" height="3" fill="#9cd6a6"/>
    <circle cx="31.5" cy="42" r="0.6" fill="url(#s-brass)"/>
  </g>
  <g>
    <rect x="36" y="45" width="3" height="5" rx="0.4" fill="#0a0806"/>
    <rect x="36.5" y="46" width="2" height="3" fill="#9cd6a6"/>
    <circle cx="37.5" cy="45" r="0.6" fill="url(#s-brass)"/>
  </g>
  <g>
    <rect x="56" y="51" width="3" height="5" rx="0.4" fill="#0a0806"/>
    <rect x="56.5" y="52" width="2" height="3" fill="#9cd6a6"/>
    <circle cx="57.5" cy="51" r="0.6" fill="url(#s-brass)"/>
  </g>
  <g>
    <rect x="62" y="54" width="3" height="5" rx="0.4" fill="#0a0806"/>
    <rect x="62.5" y="55" width="2" height="3" fill="#9cd6a6"/>
    <circle cx="63.5" cy="54" r="0.6" fill="url(#s-brass)"/>
  </g>

  <!-- SHOTGUN SHELL BANDOLIER (other diagonal) -->
  <path d="M72 40 L24 56" stroke="#3a3228" stroke-width="3"/>
  <rect x="30" y="54" width="2.5" height="3.5" fill="#8a3010"/>
  <rect x="30.5" y="54" width="2" height="1" fill="#c8a868"/>
  <rect x="38" y="51" width="2.5" height="3.5" fill="#8a3010"/>
  <rect x="38.5" y="51" width="2" height="1" fill="#c8a868"/>
  <rect x="56" y="44" width="2.5" height="3.5" fill="#8a3010"/>
  <rect x="56.5" y="44" width="2" height="1" fill="#c8a868"/>
  <rect x="64" y="41" width="2.5" height="3.5" fill="#8a3010"/>
  <rect x="64.5" y="41" width="2" height="1" fill="#c8a868"/>

  <!-- pauldrons (layered bone) -->
  <path d="M16 36 Q14 48 20 52 L28 48 L28 38 Q22 34 18 34 Q16 34 16 36 Z" fill="url(#s-bone)"/>
  <path d="M80 36 Q82 48 76 52 L68 48 L68 38 Q74 34 78 34 Q80 34 80 36 Z" fill="url(#s-bone)"/>
  <path d="M16 44 Q22 48 28 44" fill="none" stroke="#6a5a40" stroke-width="0.5"/>
  <path d="M80 44 Q74 48 68 44" fill="none" stroke="#6a5a40" stroke-width="0.5"/>
  <!-- squad sigil (runic blue) on pauldron -->
  <circle cx="22" cy="42" r="1.8" fill="#3a3020"/>
  <path d="M22 40.5 L23.5 42 L22 43.5 L20.5 42 Z" fill="#7cc4ff"/>
  <circle cx="74" cy="42" r="1.8" fill="#3a3020"/>
  <path d="M74 40.5 L75.5 42 L74 43.5 L72.5 42 Z" fill="#7cc4ff"/>

  <!-- FUR MANTLE -->
  <path d="M14 32 Q16 38 22 40 L34 38 Q40 36 48 36 Q56 36 62 38 L74 40 Q80 38 82 32
           Q80 28 70 28 Q60 30 48 30 Q36 30 26 28 Q16 28 14 32 Z" fill="url(#s-fur)"/>
  <path d="M14 32 L16 36 L18 32 L20 36 L22 32 L24 36 L26 32 L28 36 L30 32 L32 36 L34 32
           L36 36 L38 32 L40 36 L42 32 L44 36 L46 32 L48 36 L50 32 L52 36 L54 32 L56 36
           L58 32 L60 36 L62 32 L64 36 L66 32 L68 36 L70 32 L72 36 L74 32 L76 36 L78 32 L80 36 L82 32"
        fill="none" stroke="#2a2414" stroke-width="0.6"/>
  <path d="M20 36 Q48 40 76 36" fill="none" stroke="#4a3e28" stroke-width="1"/>

  <!-- SCARF -->
  <path d="M34 38 Q48 44 62 38 L62 46 Q48 52 34 46 Z" fill="url(#s-scarf)"/>
  <path d="M36 42 Q48 46 60 42" fill="none" stroke="#7a6e52" stroke-width="0.4"/>
  <!-- gas mask hose tucked under scarf -->
  <path d="M40 46 Q44 50 48 48 Q52 50 56 46" fill="none" stroke="#2a2218" stroke-width="2"/>
  <circle cx="44" cy="50" r="1" fill="#2a2218"/>
  <circle cx="52" cy="50" r="1" fill="#2a2218"/>

  <!-- HEAD / BONE MASK WITH RESPIRATOR -->
  <ellipse cx="48" cy="22" rx="14" ry="16" fill="url(#s-bone)"/>
  <!-- ridged brow -->
  <path d="M34 14 Q48 6 62 14 L60 18 Q48 12 36 18 Z" fill="url(#s-bone-dark)"/>
  <path d="M36 16 Q48 12 60 16" fill="none" stroke="#6a5a40" stroke-width="0.5"/>
  <!-- center ridge -->
  <path d="M48 6 L50 14 L48 18 L46 14 Z" fill="url(#s-bone-dark)"/>
  <!-- side rails w/ sensor + alch lens -->
  <rect x="32" y="18" width="2" height="8" fill="#1a1410"/>
  <rect x="62" y="18" width="2" height="8" fill="#1a1410"/>
  <circle cx="33" cy="20" r="0.8" fill="#9cd6a6"/>
  <!-- GOGGLE VISOR (green-tinted, alchemical lenses) -->
  <path d="M36 20 L60 20 L60 26 L36 26 Z" fill="#0a0806"/>
  <path d="M36 20 L60 20" stroke="#3a3228" stroke-width="0.8"/>
  <!-- left lens (round) -->
  <circle cx="42" cy="23" r="2.6" fill="#0a0806"/>
  <circle cx="42" cy="23" r="1.8" fill="#9cd6a6"/>
  <circle cx="42" cy="23" r="0.7" fill="#e8f8d8"/>
  <!-- right lens -->
  <circle cx="54" cy="23" r="2.6" fill="#0a0806"/>
  <circle cx="54" cy="23" r="1.8" fill="#9cd6a6"/>
  <circle cx="54" cy="23" r="0.7" fill="#e8f8d8"/>
  <!-- bridge between lenses -->
  <rect x="44" y="22" width="6" height="3" fill="url(#s-bone-dark)"/>
  <!-- temple filigree -->
  <path d="M36 18 Q34 22 36 26" fill="none" stroke="#5a4a30" stroke-width="0.5"/>
  <path d="M60 18 Q62 22 60 26" fill="none" stroke="#5a4a30" stroke-width="0.5"/>
  <!-- respirator MOUTH UNIT (prominent round filter) -->
  <path d="M40 28 L56 28 L55 36 L41 36 Z" fill="url(#s-bone-dark)"/>
  <!-- filter canister -->
  <rect x="42" y="30" width="12" height="5" rx="1" fill="#1a1410"/>
  <!-- filter mesh -->
  <circle cx="44" cy="32.5" r="0.6" fill="#3a3228"/>
  <circle cx="47" cy="32.5" r="0.6" fill="#3a3228"/>
  <circle cx="50" cy="32.5" r="0.6" fill="#3a3228"/>
  <circle cx="53" cy="32.5" r="0.6" fill="#3a3228"/>
  <!-- alchemical glow inside filter -->
  <rect x="43" y="31" width="10" height="1" fill="#9cd6a6" opacity=".5"/>
  <!-- hose connecting to side -->
  <path d="M40 34 Q34 36 32 40" fill="none" stroke="#2a2218" stroke-width="2"/>
  <path d="M56 34 Q62 36 64 40" fill="none" stroke="#2a2218" stroke-width="2"/>
  <!-- chin plate -->
  <path d="M42 36 L48 40 L54 36 L53 38 L43 38 Z" fill="url(#s-bone-dark)"/>
  <!-- forehead engraving -->
  <path d="M44 10 L48 8 L52 10 L50 14 L46 14 Z" fill="none" stroke="#5a4a30" stroke-width="0.5"/>
  <circle cx="48" cy="12" r="0.8" fill="#9cd6a6"/>
  <!-- NVG/rangefinder mount -->
  <rect x="44" y="4" width="8" height="2" rx="0.5" fill="#1a1410"/>
  <rect x="46" y="2" width="4" height="3" rx="0.5" fill="#1a1410"/>
  <circle cx="48" cy="3.5" r="0.8" fill="#9cd6a6"/>
  <!-- weathering streaks -->
  <path d="M38 22 L36 26" stroke="#6a5a40" stroke-width="0.3" opacity=".6"/>
  <path d="M58 22 L60 26" stroke="#6a5a40" stroke-width="0.3" opacity=".6"/>
  <path d="M42 38 L44 40" stroke="#5a4a30" stroke-width="0.3" opacity=".6"/>

  <!-- ARMS: undersuit + bone bracers -->
  <path d="M18 44 Q16 46 16 48 L18 68 Q18 72 22 72 L26 70 L26 42 Z" fill="url(#s-under)"/>
  <path d="M78 44 Q80 46 80 48 L78 68 Q78 72 74 72 L70 70 L70 42 Z" fill="url(#s-under)"/>
  <path d="M16 50 L26 50 L26 56 L16 56 Z" fill="url(#s-bone)"/>
  <path d="M80 50 L70 50 L70 56 L80 56 Z" fill="url(#s-bone)"/>
  <path d="M16 62 L26 62 L26 70 L16 70 Z" fill="url(#s-bone)"/>
  <path d="M80 62 L70 62 L70 70 L80 70 Z" fill="url(#s-bone)"/>
  <path d="M18 64 L24 64 M18 67 L24 67" stroke="#6a5a40" stroke-width="0.4"/>
  <path d="M72 64 L78 64 M72 67 L78 67" stroke="#6a5a40" stroke-width="0.4"/>
  <!-- gloves (dark, reinforced with brass knuckles) -->
  <path d="M14 70 Q12 74 16 78 L22 78 Q24 74 22 70 Z" fill="#0a0806"/>
  <path d="M82 70 Q84 74 80 78 L74 78 Q72 74 74 70 Z" fill="#0a0806"/>
  <circle cx="16" cy="74" r="0.8" fill="url(#s-brass)"/>
  <circle cx="20" cy="76" r="0.8" fill="url(#s-brass)"/>
  <circle cx="80" cy="74" r="0.8" fill="url(#s-brass)"/>
  <circle cx="76" cy="76" r="0.8" fill="url(#s-brass)"/>

  <!-- HEXBORE SCATTERGUN (dark tactical shotgun) -->
  <path d="M6 66 L18 64 L18 74 L6 76 Z" fill="url(#s-gun)"/>
  <rect x="4" y="66" width="2" height="10" fill="url(#s-brass)"/>
  <path d="M18 62 L48 62 L48 76 L18 76 Z" fill="url(#s-gun)"/>
  <rect x="18" y="68" width="30" height="2" fill="url(#s-brass)"/>
  <!-- alchemical vial (class tag) on receiver -->
  <rect x="28" y="66" width="6" height="8" rx="0.6" fill="#0a0806"/>
  <rect x="28.5" y="67" width="5" height="6" fill="#9cd6a6"/>
  <rect x="28.5" y="67" width="5" height="2" fill="#e8f8d8" opacity=".7"/>
  <!-- hex sigil -->
  <path d="M40 66 L43 68 L43 71 L40 73 L37 71 L37 68 Z" fill="none" stroke="#9cd6a6" stroke-width="0.6"/>
  <!-- pump grip -->
  <path d="M38 76 L46 76 L46 82 L38 82 Z" fill="#1a1410"/>
  <path d="M39 77 L45 77 M39 79 L45 79 M39 81 L45 81" stroke="#3a3228" stroke-width="0.3"/>
  <!-- trigger -->
  <path d="M48 70 Q52 74 54 70" fill="none" stroke="#0a0806" stroke-width="1.4"/>
  <path d="M52 70 L58 70 L58 80 L54 82 Z" fill="#1a1410"/>
  <!-- double barrel -->
  <rect x="48" y="64" width="36" height="4" fill="url(#s-gun)"/>
  <rect x="48" y="68" width="36" height="4" fill="url(#s-gun)"/>
  <path d="M48 68 L84 68" stroke="#0a0806" stroke-width="0.3"/>
  <rect x="58" y="64" width="2" height="8" fill="url(#s-brass)"/>
  <rect x="72" y="64" width="2" height="8" fill="url(#s-brass)"/>
  <!-- muzzle (flared, double) -->
  <path d="M84 62 L90 64 L90 72 L84 74 Z" fill="url(#s-gun)"/>
  <rect x="85" y="64" width="1" height="8" fill="#0a0806"/>
  <rect x="88" y="64" width="1" height="8" fill="#0a0806"/>
  <!-- alchemical muzzle glow -->
  <circle cx="92" cy="68" r="5" fill="url(#s-alch)"/>
  <circle cx="92" cy="68" r="2" fill="#e8f8d8"/>
  <circle cx="90" cy="62" r="0.8" fill="#9cd6a6"/>
  <circle cx="94" cy="74" r="0.6" fill="#9cd6a6"/>
</svg>
